<svg width="155" height="290" viewBox="0 0 155 290" fill="none" xmlns="http://www.w3.org/2000/svg">
<path d="M78.1525 1.64551C111.897 28.5178 130.761 66.0398 141.19 96.9941C146.405 112.475 149.514 126.324 151.32 136.396C153.121 146.445 153.629 152.761 153.63 153.182L153.664 154.175C153.772 158.061 153.716 172.43 145.94 186.648C141.491 194.783 134.517 202.867 123.615 208.914C113.057 214.77 98.8391 218.701 79.7082 218.941L77.842 218.953H76.842L74.9758 218.941C55.8451 218.701 41.6269 214.77 31.0685 208.914C20.1673 202.867 13.1932 194.783 8.74432 186.648C0.968193 172.43 0.91208 158.061 1.01972 154.175L1.0539 153.182C1.05456 152.761 1.56298 146.445 3.36444 136.396C5.16989 126.324 8.27901 112.475 13.4943 96.9941C23.9227 66.0398 42.7871 28.5178 76.5314 1.64551L77.342 1L78.1525 1.64551ZM76.342 3.08301C43.3155 29.7423 24.7531 66.7062 14.4416 97.3135C9.24513 112.738 6.14744 126.538 4.34882 136.571C3.4496 141.588 2.87491 145.663 2.52557 148.526C2.35099 149.958 2.23203 151.087 2.15741 151.879C2.12012 152.275 2.09427 152.587 2.07733 152.81C2.06889 152.921 2.06268 153.009 2.05878 153.074C2.05684 153.107 2.05572 153.133 2.05487 153.152C2.05446 153.162 2.05406 153.169 2.0539 153.175C2.05381 153.178 2.05388 153.181 2.0539 153.182L2.01972 154.175C1.91368 158.032 1.96821 172.176 9.62128 186.169C13.9893 194.155 20.8354 202.094 31.5539 208.039C42.1853 213.936 56.654 217.884 76.342 217.95V3.08301ZM78.342 217.95C98.0301 217.884 112.499 213.936 123.13 208.039C133.849 202.094 140.695 194.155 145.063 186.169C152.716 172.176 152.77 158.032 152.664 154.175L152.63 153.182C152.63 153.181 152.63 153.178 152.63 153.175C152.63 153.169 152.629 153.162 152.629 153.152C152.628 153.133 152.627 153.107 152.625 153.074C152.621 153.009 152.615 152.921 152.607 152.81C152.59 152.587 152.564 152.275 152.527 151.879C152.452 151.087 152.333 149.958 152.158 148.526C151.809 145.663 151.234 141.587 150.335 136.571C148.537 126.538 145.439 112.738 140.242 97.3135C129.931 66.7062 111.368 29.7423 78.342 3.08301V217.95ZM76.842 2.03711L77.342 2.03906L77.842 2.03711H76.842Z" fill="black"/>
<path d="M78.1525 1.64551L77.7787 2.11486L77.7788 2.11486L78.1525 1.64551ZM141.19 96.9941L141.758 96.8026L141.758 96.8026L141.19 96.9941ZM151.32 136.396L151.91 136.29L151.91 136.29L151.32 136.396ZM153.63 153.182L153.03 153.183L153.03 153.192L153.03 153.202L153.63 153.182ZM153.664 154.175L154.264 154.158L154.264 154.154L153.664 154.175ZM145.94 186.648L146.466 186.936L146.466 186.936L145.94 186.648ZM123.615 208.914L123.906 209.439L123.906 209.439L123.615 208.914ZM79.7082 218.941L79.712 219.541L79.7157 219.541L79.7082 218.941ZM77.842 218.953L77.842 219.553L77.8457 219.553L77.842 218.953ZM76.842 218.953L76.8382 219.553H76.842V218.953ZM74.9758 218.941L74.9682 219.541L74.972 219.541L74.9758 218.941ZM31.0685 208.914L30.7775 209.439L30.7775 209.439L31.0685 208.914ZM8.74432 186.648L8.21791 186.936L8.21792 186.936L8.74432 186.648ZM1.01972 154.175L0.420057 154.154L0.419946 154.158L1.01972 154.175ZM1.0539 153.182L1.65354 153.202L1.65388 153.192L1.65389 153.183L1.0539 153.182ZM3.36444 136.396L2.77386 136.29L2.77386 136.29L3.36444 136.396ZM13.4943 96.9941L12.9257 96.8026L12.9257 96.8026L13.4943 96.9941ZM76.5314 1.64551L76.9052 2.11486L76.9052 2.11486L76.5314 1.64551ZM77.342 1L77.7158 0.530652L77.342 0.232978L76.9682 0.530652L77.342 1ZM76.342 3.08301H76.942V1.8276L75.9651 2.61613L76.342 3.08301ZM14.4416 97.3135L13.873 97.1219L13.873 97.1219L14.4416 97.3135ZM4.34882 136.571L3.75823 136.465L3.75823 136.465L4.34882 136.571ZM2.52557 148.526L1.92999 148.454L1.92999 148.454L2.52557 148.526ZM2.15741 151.879L1.56005 151.823L1.56005 151.823L2.15741 151.879ZM2.07733 152.81L1.47906 152.764L1.47906 152.764L2.07733 152.81ZM2.05878 153.074L1.45986 153.038L1.45985 153.038L2.05878 153.074ZM2.05487 153.152L2.6543 153.179L2.6543 153.179L2.05487 153.152ZM2.0539 153.175L1.45418 153.156L1.45414 153.158L2.0539 153.175ZM2.0539 153.182L2.65354 153.202L2.65403 153.188L2.65385 153.174L2.0539 153.182ZM2.01972 154.175L1.42006 154.154L1.41994 154.158L2.01972 154.175ZM9.62128 186.169L9.09487 186.457L9.09487 186.457L9.62128 186.169ZM31.5539 208.039L31.2629 208.564L31.2629 208.564L31.5539 208.039ZM76.342 217.95L76.34 218.55L76.942 218.552V217.95H76.342ZM78.342 217.95H77.742V218.552L78.344 218.55L78.342 217.95ZM123.13 208.039L123.421 208.564L123.421 208.564L123.13 208.039ZM145.063 186.169L145.589 186.457L145.589 186.457L145.063 186.169ZM152.664 154.175L153.264 154.158L153.264 154.154L152.664 154.175ZM152.63 153.182L152.03 153.174L152.03 153.188L152.03 153.202L152.63 153.182ZM152.63 153.175L153.23 153.158L153.23 153.156L152.63 153.175ZM152.629 153.152L152.03 153.179L152.03 153.179L152.629 153.152ZM152.625 153.074L153.224 153.038L153.224 153.038L152.625 153.074ZM152.607 152.81L153.205 152.764L153.205 152.764L152.607 152.81ZM152.527 151.879L153.124 151.823L153.124 151.823L152.527 151.879ZM152.158 148.526L152.754 148.454L152.754 148.454L152.158 148.526ZM150.335 136.571L150.926 136.465L150.926 136.465L150.335 136.571ZM140.242 97.3135L140.811 97.1219L140.811 97.1219L140.242 97.3135ZM78.342 3.08301L78.7188 2.61613L77.742 1.8276V3.08301H78.342ZM76.842 2.03711V1.43711L76.8396 2.6371L76.842 2.03711ZM77.342 2.03906L77.3396 2.63908L77.3443 2.63906L77.342 2.03906ZM77.842 2.03711L77.8443 2.6371L77.842 1.43711V2.03711ZM78.1525 1.64551L77.7788 2.11486C111.398 28.8875 130.212 66.2893 140.621 97.1857L141.19 96.9941L141.758 96.8026C131.31 65.7903 112.396 28.148 78.5263 1.17615L78.1525 1.64551ZM141.19 96.9941L140.621 97.1857C145.825 112.633 148.928 126.453 150.729 136.501L151.32 136.396L151.91 136.29C150.101 126.195 146.985 112.317 141.758 96.8026L141.19 96.9941ZM151.32 136.396L150.729 136.501C151.628 141.514 152.203 145.595 152.555 148.472C152.73 149.911 152.849 151.048 152.925 151.851C152.962 152.252 152.989 152.569 153.006 152.797C153.015 152.911 153.021 153.002 153.025 153.069C153.027 153.103 153.028 153.13 153.029 153.15C153.029 153.16 153.03 153.168 153.03 153.174C153.03 153.18 153.03 153.183 153.03 153.183L153.63 153.182L154.23 153.181C154.229 152.704 153.712 146.344 151.91 136.29L151.32 136.396ZM153.63 153.182L153.03 153.202L153.065 154.195L153.664 154.175L154.264 154.154L154.23 153.161L153.63 153.182ZM153.664 154.175L153.064 154.191C153.171 158.039 153.114 172.281 145.413 186.361L145.94 186.648L146.466 186.936C154.318 172.58 154.373 158.083 154.264 154.158L153.664 154.175ZM145.94 186.648L145.413 186.361C141.013 194.406 134.116 202.403 123.324 208.389L123.615 208.914L123.906 209.439C134.918 203.331 141.969 195.159 146.466 186.936L145.94 186.648ZM123.615 208.914L123.324 208.389C112.869 214.189 98.7528 218.102 79.7007 218.341L79.7082 218.941L79.7157 219.541C98.9253 219.3 113.245 215.352 123.906 209.439L123.615 208.914ZM79.7082 218.941L79.7044 218.341L77.8382 218.353L77.842 218.953L77.8457 219.553L79.712 219.541L79.7082 218.941ZM77.842 218.953V218.353H76.842V218.953V219.553H77.842V218.953ZM76.842 218.953L76.8457 218.353L74.9795 218.341L74.9758 218.941L74.972 219.541L76.8382 219.553L76.842 218.953ZM74.9758 218.941L74.9833 218.341C55.9313 218.102 41.8148 214.189 31.3596 208.389L31.0685 208.914L30.7775 209.439C41.4391 215.352 55.7588 219.3 74.9682 219.541L74.9758 218.941ZM31.0685 208.914L31.3596 208.389C20.568 202.403 13.6711 194.406 9.27073 186.361L8.74432 186.648L8.21792 186.936C12.7153 195.159 19.7666 203.331 30.7775 209.439L31.0685 208.914ZM8.74432 186.648L9.27074 186.361C1.57033 172.281 1.51293 158.039 1.61949 154.191L1.01972 154.175L0.419946 154.158C0.311232 158.083 0.36606 172.58 8.21791 186.936L8.74432 186.648ZM1.01972 154.175L1.61936 154.195L1.65354 153.202L1.0539 153.182L0.45425 153.161L0.420071 154.154L1.01972 154.175ZM1.0539 153.182L1.65389 153.183C1.65389 153.183 1.6539 153.18 1.65407 153.174C1.65423 153.168 1.65451 153.16 1.65494 153.15C1.6558 153.13 1.65716 153.103 1.65914 153.069C1.66309 153.002 1.66921 152.911 1.67779 152.797C1.69494 152.569 1.72155 152.252 1.75924 151.851C1.83459 151.048 1.9539 149.911 2.12945 148.472C2.48056 145.595 3.0564 141.514 3.95503 136.501L3.36444 136.396L2.77386 136.29C0.971534 146.344 0.454651 152.704 0.453896 153.181L1.0539 153.182ZM3.36444 136.396L3.95503 136.501C5.75637 126.453 8.85886 112.633 14.0629 97.1857L13.4943 96.9941L12.9257 96.8026C7.69916 112.317 4.5834 126.195 2.77386 136.29L3.36444 136.396ZM13.4943 96.9941L14.0629 97.1857C24.4718 66.2893 43.2859 28.8876 76.9052 2.11486L76.5314 1.64551L76.1577 1.17615C42.2883 28.148 23.3736 65.7903 12.9257 96.8026L13.4943 96.9941ZM76.5314 1.64551L76.9052 2.11486L77.7158 1.46935L77.342 1L76.9682 0.530652L76.1577 1.17616L76.5314 1.64551ZM77.342 1L76.9682 1.46935L77.7787 2.11486L78.1525 1.64551L78.5263 1.17616L77.7158 0.530652L77.342 1ZM76.342 3.08301L75.9651 2.61613C42.8159 29.3745 24.2039 66.457 13.873 97.1219L14.4416 97.3135L15.0102 97.505C25.3022 66.9554 43.8151 30.1102 76.7188 3.54988L76.342 3.08301ZM14.4416 97.3135L13.873 97.1219C8.66528 112.58 5.56095 126.409 3.75823 136.465L4.34882 136.571L4.9394 136.677C6.73393 126.667 9.82498 112.896 15.0102 97.505L14.4416 97.3135ZM4.34882 136.571L3.75823 136.465C2.85691 141.493 2.28059 145.58 1.92999 148.454L2.52557 148.526L3.12116 148.599C3.46922 145.746 4.04229 141.682 4.9394 136.677L4.34882 136.571ZM2.52557 148.526L1.92999 148.454C1.7548 149.89 1.63524 151.024 1.56005 151.823L2.15741 151.879L2.75477 151.935C2.82883 151.149 2.94718 150.025 3.12116 148.599L2.52557 148.526ZM2.15741 151.879L1.56005 151.823C1.52244 152.222 1.49627 152.538 1.47906 152.764L2.07733 152.81L2.67561 152.855C2.69226 152.636 2.71781 152.328 2.75477 151.935L2.15741 151.879ZM2.07733 152.81L1.47906 152.764C1.47052 152.876 1.46403 152.969 1.45986 153.038L2.05878 153.074L2.6577 153.11C2.66132 153.05 2.66727 152.965 2.67561 152.855L2.07733 152.81ZM2.05878 153.074L1.45985 153.038C1.45759 153.076 1.45627 153.107 1.45544 153.126L2.05487 153.152L2.6543 153.179C2.65516 153.159 2.6561 153.137 2.6577 153.11L2.05878 153.074ZM2.05487 153.152L1.45544 153.126C1.45527 153.13 1.45516 153.132 1.45492 153.138C1.45475 153.141 1.45441 153.149 1.45418 153.156L2.0539 153.175L2.65361 153.193C2.65357 153.195 2.65353 153.196 2.65355 153.195C2.65356 153.195 2.6536 153.194 2.65367 153.192C2.65377 153.19 2.65406 153.184 2.6543 153.179L2.05487 153.152ZM2.0539 153.175L1.45414 153.158C1.45383 153.169 1.45383 153.178 1.45388 153.184C1.4539 153.187 1.45394 153.189 1.45396 153.191C1.45397 153.191 1.45399 153.192 1.45398 153.192C1.45398 153.192 1.45398 153.192 1.45397 153.191C1.45397 153.191 1.45395 153.19 1.45394 153.189L2.0539 153.182L2.65385 153.174C2.65382 153.172 2.6538 153.171 2.65379 153.171C2.65379 153.17 2.65379 153.17 2.65379 153.17C2.65379 153.17 2.65379 153.17 2.65379 153.17C2.65379 153.17 2.65379 153.17 2.65379 153.17C2.6538 153.171 2.65382 153.172 2.65384 153.174C2.65387 153.178 2.65387 153.184 2.65365 153.192L2.0539 153.175ZM2.0539 153.182L1.45425 153.161L1.42007 154.154L2.01972 154.175L2.61936 154.195L2.65354 153.202L2.0539 153.182ZM2.01972 154.175L1.41994 154.158C1.31285 158.054 1.36602 172.325 9.09487 186.457L9.62128 186.169L10.1477 185.881C2.57039 172.027 2.51452 158.01 2.61949 154.191L2.01972 154.175ZM9.62128 186.169L9.09487 186.457C13.5114 194.532 20.4348 202.558 31.2629 208.564L31.5539 208.039L31.8449 207.514C21.2361 201.63 14.4673 193.779 10.1477 185.881L9.62128 186.169ZM31.5539 208.039L31.2629 208.564C42 214.519 56.5726 218.484 76.34 218.55L76.342 217.95L76.344 217.35C56.7354 217.285 42.3707 213.353 31.8449 207.514L31.5539 208.039ZM76.342 217.95H76.942V3.08301H76.342H75.742V217.95H76.342ZM78.342 217.95L78.344 218.55C98.1115 218.484 112.684 214.519 123.421 208.564L123.13 208.039L122.839 207.514C112.313 213.353 97.9487 217.285 78.34 217.35L78.342 217.95ZM123.13 208.039L123.421 208.564C134.25 202.558 141.172 194.532 145.589 186.457L145.063 186.169L144.536 185.881C140.217 193.779 133.448 201.63 122.839 207.514L123.13 208.039ZM145.063 186.169L145.589 186.457C153.318 172.325 153.371 158.054 153.264 154.158L152.664 154.175L152.064 154.191C152.169 158.01 152.114 172.027 144.536 185.881L145.063 186.169ZM152.664 154.175L153.264 154.154L153.23 153.161L152.63 153.182L152.03 153.202L152.065 154.195L152.664 154.175ZM152.63 153.182L153.23 153.189C153.23 153.19 153.23 153.191 153.23 153.191C153.23 153.191 153.23 153.192 153.23 153.192C153.23 153.192 153.23 153.191 153.23 153.191C153.23 153.19 153.23 153.187 153.23 153.184C153.23 153.178 153.23 153.169 153.23 153.158L152.63 153.175L152.03 153.192C152.03 153.184 152.03 153.178 152.03 153.174C152.03 153.172 152.03 153.171 152.03 153.17C152.03 153.17 152.03 153.17 152.03 153.17C152.03 153.17 152.03 153.17 152.03 153.17C152.03 153.17 152.03 153.17 152.03 153.171C152.03 153.171 152.03 153.172 152.03 153.174L152.63 153.182ZM152.63 153.175L153.23 153.156C153.23 153.149 153.229 153.141 153.229 153.138C153.229 153.132 153.229 153.13 153.229 153.126L152.629 153.152L152.03 153.179C152.03 153.184 152.03 153.19 152.03 153.192C152.03 153.194 152.03 153.195 152.03 153.195C152.03 153.196 152.03 153.195 152.03 153.193L152.63 153.175ZM152.629 153.152L153.229 153.126C153.228 153.107 153.226 153.076 153.224 153.038L152.625 153.074L152.026 153.11C152.028 153.137 152.029 153.159 152.03 153.179L152.629 153.152ZM152.625 153.074L153.224 153.038C153.22 152.969 153.213 152.876 153.205 152.764L152.607 152.81L152.008 152.855C152.017 152.965 152.023 153.05 152.026 153.11L152.625 153.074ZM152.607 152.81L153.205 152.764C153.188 152.538 153.162 152.222 153.124 151.823L152.527 151.879L151.929 151.935C151.966 152.328 151.992 152.636 152.008 152.855L152.607 152.81ZM152.527 151.879L153.124 151.823C153.049 151.024 152.929 149.89 152.754 148.454L152.158 148.526L151.563 148.599C151.737 150.025 151.855 151.149 151.929 151.935L152.527 151.879ZM152.158 148.526L152.754 148.454C152.403 145.58 151.827 141.493 150.926 136.465L150.335 136.571L149.745 136.677C150.642 141.682 151.215 145.746 151.563 148.599L152.158 148.526ZM150.335 136.571L150.926 136.465C149.123 126.409 146.019 112.58 140.811 97.1219L140.242 97.3135L139.674 97.505C144.859 112.896 147.95 126.667 149.745 136.677L150.335 136.571ZM140.242 97.3135L140.811 97.1219C130.48 66.457 111.868 29.3745 78.7188 2.61613L78.342 3.08301L77.9651 3.54988C110.869 30.1101 129.382 66.9554 139.674 97.505L140.242 97.3135ZM78.342 3.08301H77.742V217.95H78.342H78.942V3.08301H78.342ZM76.842 2.03711L76.8396 2.6371L77.3396 2.63906L77.342 2.03906L77.3443 1.43907L76.8443 1.43711L76.842 2.03711ZM77.342 2.03906L77.3443 2.63906L77.8443 2.6371L77.842 2.03711L77.8396 1.43711L77.3396 1.43907L77.342 2.03906ZM77.842 2.03711V1.43711H76.842V2.03711V2.63711H77.842V2.03711Z" fill="black"/>
<path d="M77.5 164V187M77.5 290V187M77.5 187L129 135.5M77.5 187L26 135.5M114.5 95L77.5 132L40.5 95M102.5 56L77.5 81L52.5 56" stroke="black" stroke-width="3.2"/>
</svg>
